# xmcd
#
# Track frame offsets: 
#        150
#        11813
#        24379
#        34893
#        47565
#        57191
#        67726
#        80035
#        89995
#        103492
#        113376
#        124593
#        136526
#        149708
#        163301
#        178816
#        189748
#        202502
#        211800
#        228690
#        240841
#        252933
#
# Disc length: 3525 seconds
#
# Revision: 3
# Processed by: cddbd v1.5.2PL0 Copyright (c) Steve Scherf et al.
# Submitted via: ExactAudioCopyFreeDBPlugin 1.0
#
DISCID=340dc316
DTITLE=Patsy Cline - The Definitive Collection
DYEAR=2004
DGENRE=Country
TTITLE0=Walkin' After Midnight
TTITLE1=Poor Man's Roses (Or A Rich Man's Gold)
TTITLE2=Lovesick Blues
TTITLE3=I Fall To Pieces
TTITLE4=True Love
TTITLE5=San Antonio Rose
TTITLE6=Crazy
TTITLE7=Strange
TTITLE8=She's Got You
TTITLE9=Heartaches
TTITLE10=Half As Much
TTITLE11=When I Get Thru With You (You'll Love Me Too)
TTITLE12=Imagine That
TTITLE13=So Wrong
TTITLE14=Why Can't He Be You
TTITLE15=Leavin' On Your Mind
TTITLE16=When You Need A Laugh
TTITLE17=Back In Baby's Arms
TTITLE18=Faded Love
TTITLE19=Always
TTITLE20=He Called Me Baby
TTITLE21=Sweet Dreams (Of You)
EXTD=YEAR: 2004
EXTT0=
EXTT1=
EXTT2=
EXTT3=
EXTT4=
EXTT5=
EXTT6=
EXTT7=
EXTT8=
EXTT9=
EXTT10=
EXTT11=
EXTT12=
EXTT13=
EXTT14=
EXTT15=
EXTT16=
EXTT17=
EXTT18=
EXTT19=
EXTT20=
EXTT21=
PLAYORDER=
